# Blender 4.2.1 LTS
# www.blender.org
mtllib xyz.mtl
o area_light
v -0.884011 5.319334 -2.517968
v -0.884011 5.318497 -3.567968
v 0.415989 5.318497 -3.567968
v 0.415989 5.319334 -2.517968
vn -0.0000 -1.0000 0.0008
s 0
usemtl Light
f 2//1 4//1 1//1
f 2//1 3//1 4//1
o back_wall
v -2.950011 -0.162686 -5.835598
v 2.545989 -0.162686 -5.835598
v 2.545989 5.325313 -5.839967
v -3.014011 5.325313 -5.839967
vn -0.0000 0.0008 1.0000
s 0
usemtl Grey
f 5//2 7//2 8//2
f 5//2 6//2 7//2
o ceiling
v -3.014011 5.329765 -0.247969
v -3.014011 5.325313 -5.839970
v 2.545989 5.325313 -5.839970
v 2.545989 5.329765 -0.247969
vn -0.0000 -1.0000 0.0008
s 0
usemtl Grey
f 10//3 12//3 9//3
f 10//3 11//3 12//3
o floor
v -2.982011 -0.158233 -0.243599
v 2.545989 -0.158233 -0.243599
v 2.545989 -0.162686 -5.835598
v -2.950011 -0.162686 -5.835598
vn -0.0000 1.0000 -0.0008
s 0
usemtl Grey
f 14//4 16//4 13//4
f 14//4 15//4 16//4
o left_wall
v -2.982011 -0.158233 -0.243599
v -2.950011 -0.162686 -5.835598
v -3.014011 5.325313 -5.839970
v -3.014011 5.329765 -0.247969
vn 1.0000 0.0058 -0.0000
vn 0.9999 0.0117 0.0057
s 0
usemtl BloodyRed
f 17//5 19//5 20//5
f 17//6 18//6 19//6
o right_wall
v 2.545989 -0.162686 -5.835598
v 2.545989 -0.158233 -0.243599
v 2.545989 5.329765 -0.247969
v 2.545989 5.325313 -5.839970
vn -1.0000 -0.0000 -0.0000
s 0
usemtl DarkGreen
f 22//7 24//7 21//7
f 22//7 23//7 24//7
o short_box
v 1.245989 1.491249 -0.894913
v 1.725989 1.489975 -2.494912
v 0.145989 1.489601 -2.964912
v -0.354011 1.490859 -1.384912
v -0.354011 -0.159141 -1.383599
v -0.354011 1.490859 -1.384912
v 0.145989 1.489601 -2.964912
v 0.145989 -0.160399 -2.963598
v 1.245989 -0.158750 -0.893599
v 1.245989 1.491249 -0.894913
v -0.354011 1.490859 -1.384912
v -0.354011 -0.159141 -1.383599
v 1.725989 -0.160024 -2.493598
v 1.725989 1.489975 -2.494912
v 1.245989 1.491249 -0.894913
v 1.245989 -0.158750 -0.893599
v 0.145989 -0.160399 -2.963598
v 0.145989 1.489601 -2.964912
v 1.725989 1.489975 -2.494912
v 1.725989 -0.160024 -2.493598
vn -0.0000 1.0000 -0.0008
vn -0.9534 -0.0002 -0.3017
vn -0.2928 0.0008 0.9562
vn 0.9578 0.0002 0.2873
vn 0.2851 -0.0008 -0.9585
s 0
usemtl Khaki
f 25//8 27//8 28//8
f 30//9 32//9 29//9
f 34//10 36//10 33//10
f 38//11 40//11 37//11
f 42//12 44//12 41//12
f 25//8 26//8 27//8
f 30//9 31//9 32//9
f 34//10 35//10 36//10
f 38//11 39//11 40//11
f 42//12 43//12 44//12
o tall_box
v -1.593178 3.139661 -2.889560
v -0.276511 3.139336 -3.298727
v -0.684844 3.138274 -4.631227
v -2.001511 3.138606 -4.215393
v -1.724844 0.114694 -2.846317
v -1.724845 2.864694 -2.848508
v -2.133178 2.863638 -4.173507
v -2.133178 0.113639 -4.171318
v -2.042345 0.113500 -4.345484
v -2.042344 2.863500 -4.347673
v -0.725678 2.863167 -4.764341
v -0.725678 0.113169 -4.762151
v -0.553178 0.113242 -4.670485
v -0.553178 2.863240 -4.672674
v -0.144844 2.864303 -3.339341
v -0.144844 0.114303 -3.337151
v -0.235678 0.114442 -3.162984
v -0.235678 2.864441 -3.165174
v -1.552344 2.864767 -2.756841
v -1.552344 0.114767 -2.754650
v -0.894011 3.139604 -2.961226
v -1.139011 3.138971 -3.756825
v -1.929011 3.139166 -3.511226
v -1.929011 -0.160833 -3.508598
v -1.929011 1.489166 -3.509912
v -2.174011 1.488533 -4.304912
v -2.174011 1.488533 -4.304912
v -1.384011 1.488334 -4.554913
v -1.384011 -0.161665 -4.553598
v -0.594011 1.488135 -4.804912
v -0.349011 1.488772 -4.004913
v -0.349011 -0.161227 -4.003599
v -0.104011 1.489409 -3.204912
v -0.894011 1.489604 -2.959913
v -0.894011 -0.160395 -2.958598
v -0.349011 3.138772 -4.006226
v -1.384011 3.138334 -4.556226
v -1.684011 1.489799 -2.714912
v -1.929011 3.139166 -3.511227
v -1.384011 3.138334 -4.556226
v -0.594011 1.488135 -4.804912
v -0.349011 3.138772 -4.006226
v -0.104011 1.489409 -3.204912
v -0.894011 3.139604 -2.961226
v -1.684011 1.489799 -2.714912
v -1.367777 3.139319 -3.319683
v -1.995434 0.733661 -3.724844
v -1.598189 0.733055 -4.486533
v -0.415433 0.733266 -4.221200
v -0.679833 0.734218 -3.025733
v -0.910246 3.138620 -4.196967
v -1.862589 2.244671 -3.294981
v -1.169833 2.243613 -4.623291
v -0.282589 2.244278 -3.788625
v -1.108189 2.244990 -2.894092
v -0.633490 3.139184 -3.488206
v -0.956800 3.139297 -3.347052
v -0.520574 3.139497 -3.095289
v -2.029949 3.138859 -3.897372
v -1.577321 3.139034 -3.676798
v -1.644532 3.138757 -4.025474
v -1.795157 3.139465 -3.135393
v -1.480898 3.139491 -3.103819
v -1.587001 3.139249 -3.406940
v -1.811615 -0.126155 -3.127689
v -1.865984 0.449422 -3.304568
v -1.960506 0.263298 -3.611133
v -2.168907 2.279171 -4.288980
v -2.059262 1.593228 -3.932647
v -2.039790 2.182745 -3.869933
v -2.168907 0.697922 -4.287720
v -2.079036 0.446325 -3.995897
v -2.082628 1.086709 -4.008062
v -1.741218 2.182290 -4.442425
v -1.804003 1.592838 -4.422086
v -2.157553 2.279154 -4.310750
v -1.026804 0.794378 -4.667400
v -1.180781 0.448376 -4.618398
v -1.486784 1.088846 -4.522071
v -1.762553 -0.127195 -4.433834
v -1.867764 0.446003 -4.400996
v -1.485565 0.262573 -4.521799
v -0.459790 2.182349 -4.367193
v -0.479262 1.592831 -4.430304
v -0.588907 2.278772 -4.788875
v -0.238232 0.795195 -3.642631
v -0.285984 0.449029 -3.798282
v -0.380884 1.089175 -4.108669
v -0.466407 -0.127158 -4.386960
v -0.499036 0.445929 -4.493959
v -0.380506 0.262904 -4.106776
v -0.536804 2.183382 -3.071245
v -0.474019 1.593899 -3.090246
v -0.120469 2.280038 -3.200438
v -1.251218 0.795827 -2.848581
v -1.097241 0.449747 -2.896057
v -0.791238 1.090065 -2.991467
v -0.515469 -0.126114 -3.076021
v -0.410258 0.447031 -3.109107
v -0.792457 0.263792 -2.990431
v -0.248074 3.139081 -3.617789
v -0.700701 3.138906 -3.838105
v -0.482865 3.138471 -4.384352
v -0.797124 3.138446 -4.414907
v -0.691021 3.138689 -4.109930
v -1.321222 3.138643 -4.167851
v -1.757449 3.138443 -4.419872
v -1.689116 0.699161 -2.730845
v -1.798760 1.385104 -3.087179
v -1.818232 0.795587 -3.149892
v -1.689115 2.280411 -2.732105
v -1.778986 2.532007 -3.023927
v -1.775395 1.891623 -3.011763
v -2.046407 3.104488 -3.892136
v -1.992038 2.528911 -3.715257
v -1.897517 2.715034 -3.408692
v -1.587241 2.528293 -4.491427
v -1.281238 1.887822 -4.587753
v -1.005469 3.103863 -4.675990
v -0.900258 2.530666 -4.708828
v -1.282457 2.714095 -4.588026
v -0.964019 1.383830 -4.687738
v -0.610469 0.697514 -4.799074
v -0.412038 2.528515 -4.211543
v -0.317138 1.888369 -3.901157
v -0.231615 3.104702 -3.622866
v -0.198986 2.531616 -3.515867
v -0.317516 2.714641 -3.903050
v -0.218760 1.384713 -3.579521
v -0.109115 0.698771 -3.220949
v -0.690781 2.529461 -3.023768
v -0.996784 1.889143 -2.928358
v -1.272553 3.105323 -2.843803
v -1.377764 2.532177 -2.810718
v -0.995565 2.715416 -2.929394
v -1.314003 1.385310 -2.829579
v -1.667553 0.699170 -2.719387
v -1.271056 3.139172 -3.504290
v -1.172522 3.139425 -3.186686
v -1.277657 3.139684 -2.860393
v -1.960884 1.089570 -3.613018
v -2.046407 -0.126762 -3.889563
v -1.879346 1.086399 -4.397841
v -1.005469 -0.127386 -4.673417
v -2.157553 0.697904 -4.309491
v -0.502628 1.086312 -4.506197
v -0.231615 -0.126547 -3.620293
v -0.588907 0.697523 -4.787617
v -0.398676 1.087422 -3.113209
v -1.272553 -0.125927 -2.841230
v -0.120469 0.698788 -3.199178
v -1.006966 3.138768 -4.010663
v -1.000365 3.138252 -4.659351
v -1.105500 3.138514 -4.330185
v -1.897138 1.888762 -3.406807
v -1.811615 3.105094 -3.130262
v -1.762553 3.104054 -4.436407
v -0.610469 2.278764 -4.800333
v -0.888676 1.890269 -4.711984
v -0.466407 3.104091 -4.389532
v -0.109115 2.280021 -3.222209
v -0.195394 1.891232 -3.503628
v -0.515469 3.105136 -3.078595
v -1.667553 2.280420 -2.720647
v -1.389346 1.891787 -2.806617
v -0.709286 3.139327 -3.309456
v -1.747880 3.138888 -3.861366
v -1.634856 3.139403 -3.213333
v -1.876523 0.200812 -3.338568
v -2.091069 2.030154 -4.036203
v -2.115569 0.750194 -4.114683
v -1.906563 2.029872 -4.389979
v -1.218422 0.765081 -4.606738
v -1.722230 0.199930 -4.446855
v -0.511068 2.029756 -4.534510
v -0.297658 0.765694 -3.836651
v -0.453902 0.200010 -4.346386
v -0.371459 2.030881 -3.122401
v -1.059600 0.766433 -2.907983
v -0.555792 0.201031 -3.063777
v -0.530142 3.139054 -3.652951
v -0.643166 3.138533 -4.305185
v -1.568736 3.138614 -4.204861
v -1.766954 0.948179 -2.983621
v -1.742454 2.228137 -2.905141
v -1.981499 2.777520 -3.681256
v -1.549600 2.211587 -4.503087
v -1.045792 2.776738 -4.662969
v -0.861459 0.946796 -4.719845
v -0.400364 2.211850 -4.173174
v -0.244120 2.777534 -3.663439
v -0.186954 0.947787 -3.475314
v -0.728422 2.212775 -3.011842
v -1.232230 2.778177 -2.856048
v -1.416563 0.948327 -2.797424
v -1.124523 3.139284 -3.363047
v -1.469523 3.139138 -3.546380
v -1.304231 3.139543 -3.037638
v -1.877658 0.766087 -3.342700
v -2.036312 1.284166 -3.857930
v -2.033902 0.200406 -3.849245
v -1.730002 1.283699 -4.445259
v -1.214764 0.199802 -4.607445
v -1.985563 0.749996 -4.363959
v -0.456312 1.283771 -4.355120
v -0.296523 0.200419 -3.832497
v -0.535568 0.749797 -4.613491
v -0.548020 1.284796 -3.067050
v -1.063258 0.201157 -2.906398
v -0.292459 0.750966 -3.145881
v -0.808499 3.138802 -3.969001
v -0.973791 3.138393 -4.480878
v -1.153499 3.138656 -4.152335
v -1.821710 1.694165 -3.161895
v -1.824120 2.777926 -3.170579
v -1.980365 2.212245 -3.677126
v -1.553258 2.776866 -4.502379
v -0.782459 2.226671 -4.745865
v -1.038020 1.692969 -4.664567
v -0.401499 2.777125 -4.177327
v -0.162454 2.227747 -3.396334
v -0.241710 1.693773 -3.654706
v -0.724764 2.778052 -3.013427
v -1.495563 2.228242 -2.773943
v -1.240002 1.694412 -2.852775
vn -0.0000 1.0000 -0.0008
vn -0.9556 0.0002 0.2945
vn -0.3017 -0.0008 -0.9534
vn 0.9562 -0.0002 -0.2928
vn 0.2962 0.0008 0.9551
vn -0.9557 0.0002 0.2945
s 0
usemtl Khaki
f 101//13 100//13 66//13
f 65//13 210//13 101//13
f 46//13 210//13 102//13
f 67//13 211//13 103//13
f 105//13 104//13 66//13
f 48//13 211//13 105//13
f 45//13 212//13 106//13
f 90//13 212//13 107//13
f 67//13 212//13 108//13
f 49//14 213//14 109//14
f 111//14 110//14 91//14
f 68//14 213//14 111//14
f 70//14 214//14 112//14
f 114//14 113//14 69//14
f 112//14 114//14 51//14
f 116//14 115//14 52//14
f 91//14 215//14 116//14
f 115//14 117//14 70//14
f 119//15 118//15 72//15
f 71//15 216//15 119//15
f 118//15 120//15 54//15
f 122//15 121//15 56//15
f 92//15 217//15 122//15
f 121//15 123//15 72//15
f 53//15 218//15 124//15
f 126//15 125//15 92//15
f 73//15 218//15 126//15
f 128//16 127//16 75//16
f 74//16 219//16 128//16
f 127//16 129//16 58//16
f 131//16 130//16 60//16
f 93//16 220//16 131//16
f 130//16 132//16 75//16
f 57//16 221//16 133//16
f 135//16 134//16 93//16
f 76//16 221//16 135//16
f 137//17 136//17 78//17
f 77//17 222//17 137//17
f 136//17 138//17 62//17
f 140//17 139//17 64//17
f 94//17 223//17 140//17
f 139//17 141//17 78//17
f 61//17 224//17 142//17
f 144//17 143//17 94//17
f 79//17 224//17 144//17
f 80//13 225//13 145//13
f 100//13 146//13 66//13
f 46//13 225//13 100//13
f 47//13 226//13 147//13
f 95//13 226//13 148//13
f 80//13 226//13 149//13
f 150//13 105//13 66//13
f 81//13 227//13 150//13
f 48//13 227//13 151//13
f 82//14 228//14 152//14
f 154//14 153//14 69//14
f 152//14 154//14 49//14
f 156//14 155//14 50//14
f 96//14 229//14 156//14
f 155//14 157//14 82//14
f 51//14 230//14 158//14
f 160//14 159//14 96//14
f 83//14 230//14 160//14
f 161//15 118//15 54//15
f 97//15 231//15 161//15
f 118//15 162//15 72//15
f 55//15 232//15 163//15
f 165//15 164//15 97//15
f 84//15 232//15 165//15
f 166//15 121//15 72//15
f 85//15 233//15 166//15
f 121//15 167//15 56//15
f 168//16 127//16 58//16
f 98//16 234//16 168//16
f 127//16 169//16 75//16
f 59//16 235//16 170//16
f 172//16 171//16 98//16
f 86//16 235//16 172//16
f 173//16 130//16 75//16
f 87//16 236//16 173//16
f 130//16 174//16 60//16
f 175//17 136//17 62//17
f 99//17 237//17 175//17
f 136//17 176//17 78//17
f 63//17 238//17 177//17
f 179//17 178//17 99//17
f 88//17 238//17 179//17
f 180//17 139//17 78//17
f 89//17 239//17 180//17
f 139//17 181//17 64//17
f 66//13 240//13 101//13
f 90//13 240//13 182//13
f 101//13 183//13 65//13
f 108//13 104//13 67//13
f 90//13 241//13 108//13
f 66//13 241//13 182//13
f 45//13 242//13 107//13
f 65//13 242//13 184//13
f 90//13 242//13 183//13
f 154//14 110//14 49//14
f 185//14 154//14 69//14
f 91//14 243//14 185//14
f 70//14 244//14 113//14
f 185//14 117//14 91//14
f 69//14 244//14 185//14
f 52//14 245//14 116//14
f 68//14 245//14 186//14
f 116//14 111//14 91//14
f 72//15 246//15 119//15
f 187//15 123//15 92//15
f 71//15 246//15 187//15
f 56//15 247//15 122//15
f 73//15 247//15 188//15
f 122//15 126//15 92//15
f 189//15 125//15 53//15
f 187//15 189//15 71//15
f 92//15 248//15 187//15
f 75//16 249//16 128//16
f 190//16 132//16 93//16
f 74//16 249//16 190//16
f 60//16 250//16 131//16
f 76//16 250//16 191//16
f 131//16 135//16 93//16
f 192//16 134//16 57//16
f 190//16 192//16 74//16
f 93//16 251//16 190//16
f 78//17 252//17 137//17
f 193//17 141//17 94//17
f 77//17 252//17 193//17
f 64//17 253//17 140//17
f 79//17 253//17 194//17
f 140//17 144//17 94//17
f 195//17 143//17 61//17
f 193//17 195//17 77//17
f 94//17 254//17 193//17
f 149//13 146//13 80//13
f 95//13 255//13 149//13
f 66//13 255//13 196//13
f 47//13 256//13 148//13
f 81//13 256//13 197//13
f 95//13 256//13 198//13
f 66//13 257//13 150//13
f 95//13 257//13 196//13
f 150//13 198//13 81//13
f 82//14 258//14 153//14
f 199//14 157//14 96//14
f 69//14 258//14 199//14
f 50//14 259//14 156//14
f 83//14 259//14 200//14
f 156//14 160//14 96//14
f 114//14 159//14 51//14
f 199//14 114//14 69//14
f 96//14 260//14 199//14
f 54//15 261//15 161//15
f 84//15 261//15 201//15
f 161//15 165//15 97//15
f 202//15 164//15 55//15
f 203//15 202//15 85//15
f 97//15 262//15 203//15
f 72//15 263//15 166//15
f 203//15 162//15 97//15
f 85//15 263//15 203//15
f 58//16 264//16 168//16
f 86//16 264//16 204//16
f 168//16 172//16 98//16
f 205//16 171//16 59//16
f 206//16 205//16 87//16
f 98//16 265//16 206//16
f 75//16 266//16 173//16
f 206//16 169//16 98//16
f 87//16 266//16 206//16
f 62//17 267//17 175//17
f 88//17 267//17 207//17
f 175//17 179//17 99//17
f 208//17 178//17 63//17
f 209//17 208//17 89//17
f 99//17 268//17 209//17
f 78//17 269//17 180//17
f 209//17 176//17 99//17
f 89//17 269//17 209//17
f 101//13 210//13 100//13
f 65//13 102//13 210//13
f 46//13 100//13 210//13
f 67//13 104//13 211//13
f 105//13 211//13 104//13
f 48//13 103//13 211//13
f 45//13 107//13 212//13
f 90//13 108//13 212//13
f 67//13 106//13 212//13
f 49//14 110//14 213//14
f 111//14 213//14 110//14
f 68//14 109//14 213//14
f 70//14 113//14 214//14
f 114//14 214//14 113//14
f 112//14 214//14 114//14
f 116//14 215//14 115//14
f 91//14 117//14 215//14
f 115//18 215//18 117//18
f 119//15 216//15 118//15
f 71//15 120//15 216//15
f 118//15 216//15 120//15
f 122//15 217//15 121//15
f 92//15 123//15 217//15
f 121//15 217//15 123//15
f 53//15 125//15 218//15
f 126//15 218//15 125//15
f 73//15 124//15 218//15
f 128//16 219//16 127//16
f 74//16 129//16 219//16
f 127//16 219//16 129//16
f 131//16 220//16 130//16
f 93//16 132//16 220//16
f 130//16 220//16 132//16
f 57//16 134//16 221//16
f 135//16 221//16 134//16
f 76//16 133//16 221//16
f 137//17 222//17 136//17
f 77//17 138//17 222//17
f 136//17 222//17 138//17
f 140//17 223//17 139//17
f 94//17 141//17 223//17
f 139//17 223//17 141//17
f 61//17 143//17 224//17
f 144//17 224//17 143//17
f 79//17 142//17 224//17
f 80//13 146//13 225//13
f 100//13 225//13 146//13
f 46//13 145//13 225//13
f 47//13 148//13 226//13
f 95//13 149//13 226//13
f 80//13 147//13 226//13
f 150//13 227//13 105//13
f 81//13 151//13 227//13
f 48//13 105//13 227//13
f 82//14 153//14 228//14
f 154//14 228//14 153//14
f 152//14 228//14 154//14
f 156//14 229//14 155//14
f 96//14 157//14 229//14
f 155//14 229//14 157//14
f 51//14 159//14 230//14
f 160//14 230//14 159//14
f 83//14 158//14 230//14
f 161//15 231//15 118//15
f 97//15 162//15 231//15
f 118//15 231//15 162//15
f 55//15 164//15 232//15
f 165//15 232//15 164//15
f 84//15 163//15 232//15
f 166//15 233//15 121//15
f 85//15 167//15 233//15
f 121//15 233//15 167//15
f 168//16 234//16 127//16
f 98//16 169//16 234//16
f 127//16 234//16 169//16
f 59//16 171//16 235//16
f 172//16 235//16 171//16
f 86//16 170//16 235//16
f 173//16 236//16 130//16
f 87//16 174//16 236//16
f 130//16 236//16 174//16
f 175//17 237//17 136//17
f 99//17 176//17 237//17
f 136//17 237//17 176//17
f 63//17 178//17 238//17
f 179//17 238//17 178//17
f 88//17 177//17 238//17
f 180//17 239//17 139//17
f 89//17 181//17 239//17
f 139//17 239//17 181//17
f 66//13 182//13 240//13
f 90//13 183//13 240//13
f 101//13 240//13 183//13
f 108//13 241//13 104//13
f 90//13 182//13 241//13
f 66//13 104//13 241//13
f 45//13 184//13 242//13
f 65//13 183//13 242//13
f 90//13 107//13 242//13
f 154//14 243//14 110//14
f 185//14 243//14 154//14
f 91//14 110//14 243//14
f 70//14 117//14 244//14
f 185//14 244//14 117//14
f 69//14 113//14 244//14
f 52//14 186//14 245//14
f 68//14 111//14 245//14
f 116//14 245//14 111//14
f 72//15 123//15 246//15
f 187//15 246//15 123//15
f 71//15 119//15 246//15
f 56//15 188//15 247//15
f 73//15 126//15 247//15
f 122//15 247//15 126//15
f 189//15 248//15 125//15
f 187//15 248//15 189//15
f 92//15 125//15 248//15
f 75//16 132//16 249//16
f 190//16 249//16 132//16
f 74//16 128//16 249//16
f 60//16 191//16 250//16
f 76//16 135//16 250//16
f 131//16 250//16 135//16
f 192//16 251//16 134//16
f 190//16 251//16 192//16
f 93//16 134//16 251//16
f 78//17 141//17 252//17
f 193//17 252//17 141//17
f 77//17 137//17 252//17
f 64//17 194//17 253//17
f 79//17 144//17 253//17
f 140//17 253//17 144//17
f 195//17 254//17 143//17
f 193//17 254//17 195//17
f 94//17 143//17 254//17
f 149//13 255//13 146//13
f 95//13 196//13 255//13
f 66//13 146//13 255//13
f 47//13 197//13 256//13
f 81//13 198//13 256//13
f 95//13 148//13 256//13
f 66//13 196//13 257//13
f 95//13 198//13 257//13
f 150//13 257//13 198//13
f 82//14 157//14 258//14
f 199//14 258//14 157//14
f 69//14 153//14 258//14
f 50//14 200//14 259//14
f 83//14 160//14 259//14
f 156//14 259//14 160//14
f 114//14 260//14 159//14
f 199//14 260//14 114//14
f 96//14 159//14 260//14
f 54//15 201//15 261//15
f 84//15 165//15 261//15
f 161//15 261//15 165//15
f 202//15 262//15 164//15
f 203//15 262//15 202//15
f 97//15 164//15 262//15
f 72//15 162//15 263//15
f 203//15 263//15 162//15
f 85//15 166//15 263//15
f 58//16 204//16 264//16
f 86//16 172//16 264//16
f 168//16 264//16 172//16
f 205//16 265//16 171//16
f 206//16 265//16 205//16
f 98//16 171//16 265//16
f 75//16 169//16 266//16
f 206//16 266//16 169//16
f 87//16 173//16 266//16
f 62//17 207//17 267//17
f 88//17 179//17 267//17
f 175//17 267//17 179//17
f 208//17 268//17 178//17
f 209//17 268//17 208//17
f 99//17 178//17 268//17
f 78//17 176//17 269//17
f 209//17 269//17 176//17
f 89//17 180//17 269//17
